<?xml version="1.0" standalone="no"?><!DOCTYPE svg PUBLIC "-//W3C//DTD SVG 1.1//EN" "http://www.w3.org/Graphics/SVG/1.1/DTD/svg11.dtd"><svg t="1657378159193" class="icon" viewBox="0 0 1024 1024" version="1.1" xmlns="http://www.w3.org/2000/svg" p-id="7858" xmlns:xlink="http://www.w3.org/1999/xlink" width="200" height="200"><defs><style type="text/css"></style></defs><path d="M768.3 636.9c-3.9 0-7.8-0.7-11.6-2.2L27.9 353C11.3 346.6 3 327.9 9.4 311.3c6.4-16.6 25.1-24.9 41.7-18.5l728.7 281.7c16.6 6.4 24.9 25.1 18.5 41.7-4.9 12.8-17.1 20.7-30 20.7z" fill="#FFD500" p-id="7859"></path><path d="M601.5 803.7c-12.9 0-25.2-7.8-30.1-20.6L289.8 54.3c-6.4-16.6 1.8-35.3 18.5-41.7 16.6-6.4 35.3 1.9 41.7 18.5l281.7 728.7c6.4 16.6-1.8 35.3-18.5 41.7-3.9 1.5-7.8 2.2-11.7 2.2z" fill="#ED4CA5" p-id="7860"></path><path d="M514 1014.9c-40 0-79.9-15.2-110.3-45.6C374.2 939.8 358 900.7 358 859s16.2-80.8 45.7-110.3C433.2 719.2 472.3 703 514 703s80.9 16.2 110.3 45.7c60.8 60.8 60.8 159.8 0 220.6-30.4 30.3-70.3 45.6-110.3 45.6z m0-247.5c-24.4 0-47.4 9.5-64.7 26.8-17.3 17.3-26.8 40.3-26.8 64.7 0 24.4 9.5 47.4 26.8 64.7 35.7 35.7 93.7 35.7 129.4 0s35.7-93.7 0-129.4c-17.3-17.3-40.3-26.8-64.7-26.8z m-87.5 4z" fill="#FFD500" p-id="7861"></path><path d="M855.8 673c-40 0-79.9-15.2-110.3-45.6-60.8-60.8-60.8-159.8 0-220.6 60.8-60.8 159.8-60.8 220.6 0 60.8 60.8 60.8 159.8 0 220.6-30.4 30.4-70.3 45.6-110.3 45.6z m-64.7-220.6c-35.7 35.7-35.7 93.7 0 129.4s93.7 35.7 129.4 0 35.7-93.7 0-129.4-93.7-35.7-129.4 0z" fill="#ED4CA5" p-id="7862"></path></svg>