<?xml version="1.0" standalone="no"?><!DOCTYPE svg PUBLIC "-//W3C//DTD SVG 1.1//EN" "http://www.w3.org/Graphics/SVG/1.1/DTD/svg11.dtd"><svg t="1657378210965" class="icon" viewBox="0 0 1024 1024" version="1.1" xmlns="http://www.w3.org/2000/svg" p-id="8333" xmlns:xlink="http://www.w3.org/1999/xlink" width="200" height="200"><defs><style type="text/css"></style></defs><path d="M467.6 466.1c-14.8 0-28.9-8.8-34.8-23.4-7.8-19.2 1.4-41.1 20.6-49L771.5 264 448.8 77.6c-18-10.4-24.1-33.3-13.7-51.3 10.4-18 33.3-24.1 51.3-13.7l389.2 224.8c12.4 7.2 19.7 20.8 18.7 35.1s-10 26.8-23.3 32.2L481.8 463.3c-4.7 1.9-9.5 2.8-14.2 2.8z" fill="#ED4CA5" p-id="8334"></path><path d="M467.6 1013c-166 0-344.7-44.9-344.7-143.4s178.7-143.4 344.7-143.4 344.7 44.9 344.7 143.4S633.6 1013 467.6 1013z m0-211.7c-170.3 0-267.4 48.5-269.6 68.3 2.2 19.8 99.3 68.2 269.6 68.2 170.2 0 267.3-48.4 269.5-68.3-2.2-19.7-99.3-68.2-269.5-68.2z m269.5 68.3z" fill="#FFD500" p-id="8335"></path><path d="M467.6 887.9c-20.7 0-37.6-16.8-37.6-37.6V52.7c0-20.7 16.8-37.6 37.6-37.6 20.7 0 37.6 16.8 37.6 37.6v797.7c0 20.7-16.9 37.5-37.6 37.5z" fill="#ED4CA5" p-id="8336"></path></svg>