<?xml version="1.0" standalone="no"?><!DOCTYPE svg PUBLIC "-//W3C//DTD SVG 1.1//EN" "http://www.w3.org/Graphics/SVG/1.1/DTD/svg11.dtd"><svg t="1657378189847" class="icon" viewBox="0 0 1024 1024" version="1.1" xmlns="http://www.w3.org/2000/svg" p-id="8170" xmlns:xlink="http://www.w3.org/1999/xlink" width="200" height="200"><defs><style type="text/css"></style></defs><path d="M190.2 542.8c-15.8 0-28.6-12.8-28.6-28.6v-358C161.6 73.9 228.6 7 310.9 7s149.3 67 149.3 149.3c0 15.8-12.8 28.6-28.6 28.6S403 172.1 403 156.3c0-50.8-41.3-92.1-92.1-92.1s-92.1 41.3-92.1 92.1v358c0.1 15.7-12.7 28.5-28.6 28.5zM185 1016c-7.3 0-14.6-2.8-20.2-8.4-11.2-11.2-11.2-29.3 0-40.5l73.5-73.5c11.2-11.2 29.3-11.2 40.5 0s11.2 29.3 0 40.5l-73.5 73.5c-5.7 5.6-13 8.4-20.3 8.4zM838.7 1016c-7.3 0-14.6-2.8-20.2-8.4L745 934.1c-11.2-11.2-11.2-29.3 0-40.5s29.3-11.2 40.5 0l73.5 73.5c11.2 11.2 11.2 29.3 0 40.5-5.6 5.6-13 8.4-20.3 8.4z" fill="#FFD500" p-id="8171"></path><path d="M725.4 942.5H295.8c-113 0-205-92-205-205V619.9c0-15.8 12.8-28.6 28.6-28.6s28.6 12.8 28.6 28.6v117.6c0 81.5 66.3 147.8 147.8 147.8h429.6c81.5 0 147.8-66.3 147.8-147.8V619.9c0-15.8 12.8-28.6 28.6-28.6s28.6 12.8 28.6 28.6v117.6c0 113-92 205-205 205z" fill="#ED4CA5" p-id="8172"></path><path d="M725.4 806.5H295.8" fill="#FFFFFF" p-id="8173"></path><path d="M725.4 835.2H295.8c-15.8 0-28.6-12.8-28.6-28.6S280 778 295.8 778h429.6c15.8 0 28.6 12.8 28.6 28.6s-12.8 28.6-28.6 28.6z" fill="#FFD500" p-id="8174"></path><path d="M937.7 648.5H83.4c-42.9 0-77.9-34.9-77.9-77.9 0-42.9 34.9-77.9 77.9-77.9h854.3c42.9 0 77.9 34.9 77.9 77.9 0 43-34.9 77.9-77.9 77.9zM83.4 550c-11.4 0-20.7 9.3-20.7 20.6 0 11.4 9.3 20.7 20.7 20.7h854.3c11.4 0 20.7-9.3 20.7-20.7 0-11.4-9.3-20.6-20.7-20.6H83.4zM510.8 325H352.4c-15.8 0-28.6-12.8-28.6-28.6v-57.8c0-59.4 48.4-107.8 107.8-107.8s107.8 48.4 107.8 107.8v57.8c0 15.8-12.8 28.6-28.6 28.6zM381 267.7h101.2v-29.2c0-27.9-22.7-50.6-50.6-50.6-27.9 0-50.6 22.7-50.6 50.6v29.2z" fill="#ED4CA5" p-id="8175"></path><path d="M360.1 375.7v23.2" fill="#FFFFFF" p-id="8176"></path><path d="M360.1 427.5c-15.8 0-28.6-12.8-28.6-28.6v-23.2c0-15.8 12.8-28.6 28.6-28.6s28.6 12.8 28.6 28.6v23.2c0 15.8-12.8 28.6-28.6 28.6z" fill="#FFD500" p-id="8177"></path><path d="M431.6 375.7v23.2" fill="#FFFFFF" p-id="8178"></path><path d="M431.6 427.5c-15.8 0-28.6-12.8-28.6-28.6v-23.2c0-15.8 12.8-28.6 28.6-28.6s28.6 12.8 28.6 28.6v23.2c0 15.8-12.8 28.6-28.6 28.6z" fill="#FFD500" p-id="8179"></path><path d="M503.1 375.7v23.2" fill="#FFFFFF" p-id="8180"></path><path d="M503.1 427.5c-15.8 0-28.6-12.8-28.6-28.6v-23.2c0-15.8 12.8-28.6 28.6-28.6s28.6 12.8 28.6 28.6v23.2c0 15.8-12.8 28.6-28.6 28.6z" fill="#FFD500" p-id="8181"></path></svg>