<?xml version="1.0" standalone="no"?><!DOCTYPE svg PUBLIC "-//W3C//DTD SVG 1.1//EN" "http://www.w3.org/Graphics/SVG/1.1/DTD/svg11.dtd"><svg t="1657429042926" class="icon" viewBox="0 0 1024 1024" version="1.1" xmlns="http://www.w3.org/2000/svg" p-id="1899" xmlns:xlink="http://www.w3.org/1999/xlink" width="200" height="200"><defs><style type="text/css"></style></defs><path d="M1019.409 833.391l-97.431-718.264c-0.009-0.063-0.023-0.124-0.035-0.187a7.21 7.21 0 0 0-0.172-0.83 7.446 7.446 0 0 0-0.256-0.824c-0.045-0.118-0.086-0.237-0.135-0.353a9.668 9.668 0 0 0-0.206-0.45c-0.046-0.093-0.088-0.188-0.136-0.279a9.685 9.685 0 0 0-0.284-0.487c-0.043-0.07-0.083-0.144-0.128-0.213a8.91 8.91 0 0 0-0.375-0.525c-0.035-0.045-0.066-0.093-0.102-0.137a8.829 8.829 0 0 0-1.126-1.177c-0.079-0.068-0.165-0.13-0.246-0.197-0.128-0.101-0.254-0.205-0.386-0.301-0.104-0.073-0.212-0.141-0.318-0.21-0.12-0.079-0.24-0.159-0.363-0.231a9.513 9.513 0 0 0-0.346-0.187 8.17 8.17 0 0 0-0.385-0.195 8.955 8.955 0 0 0-0.349-0.151 8.472 8.472 0 0 0-1.267-0.415c-0.102-0.025-0.205-0.051-0.309-0.072a8.573 8.573 0 0 0-0.559-0.094c-0.07-0.01-0.137-0.027-0.207-0.035-0.03-0.003-0.059-0.003-0.088-0.006-0.174-0.019-0.35-0.027-0.525-0.035-0.122-0.006-0.243-0.017-0.364-0.018l-0.046-0.002-0.122 0.001c-0.088 0.001-0.174 0.013-0.261 0.017a8.683 8.683 0 0 0-0.512 0.03c-0.086 0.008-0.168 0.022-0.252 0.034a8.768 8.768 0 0 0-0.588 0.09c-0.039 0.008-0.076 0.02-0.116 0.027a8.777 8.777 0 0 0-2.789 1.125l-0.042 0.024a9.023 9.023 0 0 0-0.514 0.355c-0.051 0.036-0.102 0.07-0.15 0.108-0.15 0.115-0.295 0.239-0.438 0.363-0.061 0.053-0.123 0.104-0.182 0.159a8.466 8.466 0 0 0-0.38 0.378 7.257 7.257 0 0 0-0.519 0.592c-0.063 0.08-0.127 0.16-0.188 0.242a8.955 8.955 0 0 0-0.692 1.087c-0.06 0.111-0.114 0.224-0.17 0.338-0.063 0.13-0.124 0.26-0.181 0.393-0.056 0.133-0.105 0.267-0.154 0.401-0.045 0.124-0.092 0.246-0.131 0.372-0.051 0.158-0.092 0.32-0.133 0.482-0.027 0.11-0.06 0.218-0.082 0.328-0.043 0.197-0.072 0.397-0.102 0.598-0.01 0.074-0.029 0.146-0.037 0.221l-0.01 0.079v0.002l-0.001 0.009L812.465 899.9H22.086l91.828-782.567a8.791 8.791 0 0 0-7.708-9.757c-4.817-0.568-9.191 2.884-9.757 7.707L3.469 907.668a8.794 8.794 0 0 0 8.733 9.817h808.085a8.793 8.793 0 0 0 8.732-7.769l7.715-65.751h174.064a8.794 8.794 0 0 0 8.611-10.574z" fill="#D32055" p-id="1900"></path><path d="M124.724 437.484h86.368c62.266-2.356 99.117-35.482 110.598-99.353 2.762-41.387-14.724-66.808-52.455-76.288l0.258-1.774c27.791-11.81 44.014-33.709 48.659-65.644 3.968-49.676-18.234-76.288-66.605-79.837h-79.849c-20.822 1.192-33.328 12.419-37.496 33.709L97.038 403.775c-2.029 21.291 7.206 32.544 27.686 33.709z m67.532-262.573h32.591c21.545 1.191 31.404 11.836 29.575 31.935-4.365 22.481-17.494 34.317-39.383 35.482h-32.591l9.808-67.417z m-18.584 127.738h43.999c28.238 0 41.182 11.837 38.837 35.482-4.708 24.839-19.641 37.867-44.788 39.032h-48.887l10.839-74.514zM427.566 439.259c58.086-3.548 93.17-20.681 105.259-51.45 0.22-16.55-6.554-26.002-20.313-28.386-4.354 0-12.483 3.548-24.364 10.644-20.033 10.646-36.008 15.969-47.95 15.969-32.421-1.166-49.119-17.133-50.066-47.903h128.736c17.366 0 27.448-9.452 30.202-28.386 1.959-73.323-28.128-112.937-90.258-118.868-66.046 5.932-108.002 47.901-125.877 125.965-7.028 78.061 24.516 118.867 94.631 122.415z m23.503-195.156c26.969 1.191 40.233 18.351 39.772 51.45h-96.145c10.24-33.1 29.031-50.259 56.373-51.45zM634.117 386.035c-9.777 0-20.584-4.132-32.414-12.42-10.935-7.096-20.197-10.645-27.785-10.645-14.304 1.191-23.916 11.254-28.83 30.16 1.463 27.223 26.932 42.58 76.396 46.128 53.391-1.191 85.178-25.42 95.32-72.739-1.592-41.389-20.793-66.227-57.602-74.516-22.533-9.453-33.184-18.324-31.979-26.611 1.718-11.81 9.634-17.742 23.766-17.742 7.588 0 18.39 4.158 32.414 12.419 9.088 4.741 15.263 7.097 18.521 7.097 15.371-1.165 24.982-11.227 28.832-30.161 1.768-27.194-20.974-42.579-68.25-46.127-51.424 2.384-82.264 27.804-92.576 76.288 1.563 41.415 20.852 65.645 57.859 72.74 22.506 9.48 33.182 18.351 31.979 26.613-0.823 13.028-9.356 19.516-25.651 19.516zM756.139 252.974h13.035l-21.939 150.802c-2.199 22.482 6.504 33.709 26.059 33.709 18.461 0 29.872-11.227 34.236-33.709l21.939-150.802h17.925c17.536-1.165 28.156-10.646 31.831-28.387 2.752-18.907-5.113-28.388-23.572-28.388h-17.926l5.679-39.03c2.345-23.647-5.625-36.065-23.913-37.258-19.727 1.192-31.871 13.61-36.381 37.258l-5.679 39.03h-13.036c-14.305 1.193-23.268 10.646-26.943 28.388-2.583 17.741 3.627 27.222 18.685 28.387z" fill="#E3B933" p-id="1901"></path><path d="M200.905 545.623c8.065 0 17.843 2.214 29.314 6.592 9.596 3.296 16.429 4.945 20.472 4.945 16.288-1.083 26.394-11.537 30.288-31.313 1.479-24.152-21.731-37.902-69.689-41.198-60.195 4.402-96.615 36.255-109.267 95.581 0.874 49.44 23.704 76.373 68.477 80.751 30.686 10.995 45.082 23.071 43.164 36.255-4.373 23.072-19.26 35.173-44.63 36.257-9.082 0-21.232-3.296-36.403-9.888-12.489-4.379-21.249-6.594-26.286-6.594-16.315 1.107-26.34 10.996-30.048 29.664-3.165 28.582 25.972 43.389 87.374 44.496 63.038-3.297 100.893-34.608 113.569-93.936-1.629-58.219-25.835-89.531-72.615-93.934-28.003-8.78-41.102-19.209-39.342-31.311 3.389-16.479 15.263-25.259 35.622-26.367zM451.996 588.471c-8.4-18.669-24.685-28.014-48.902-28.014-57.485 6.59-93.931 45.602-109.357 117.004-6.528 72.511 18.752 110.414 75.793 113.711 21.191 0 40.033-8.24 56.574-24.721 1.624 16.48 9.589 24.154 23.89 23.072 18.163 0 28.562-12.619 31.246-37.903l21.817-149.966c4.83-26.367-1.814-39.551-19.979-39.551-15.298 1.107-25.658 9.889-31.082 26.368z m-14.46 88.99c-7.63 38.47-25.203 58.787-52.767 60.975-26.928-2.188-38.612-22.505-35.026-60.975 7.603-38.443 25.199-58.761 52.767-60.975 26.925 2.214 38.585 22.532 35.026 60.975zM580.475 464.873c-17.331 1.107-28.013 12.102-32.041 32.959l-37.88 260.38c-2.044 20.882 5.521 31.312 22.691 31.312 18.163 0 29.261-10.43 33.313-31.312l37.881-260.38c2.018-20.857-5.962-31.852-23.964-32.959zM797.234 670.869c1.82-68.107-26.126-104.904-83.838-110.412-61.349 5.508-100.322 44.493-116.925 117.004-6.528 72.511 22.772 110.414 87.901 113.711 53.955-3.297 86.543-19.211 97.773-47.792 0.201-15.372-6.09-24.153-18.87-26.368-4.044 0-11.595 3.297-22.63 9.89-18.608 9.888-33.447 14.83-44.54 14.83-30.116-1.081-45.626-15.913-46.506-44.495H769.18c16.132-0.001 25.496-8.782 28.054-26.368z m-54.088-13.183h-89.305c9.509-30.746 26.965-46.684 52.361-47.791 25.053 1.107 37.374 17.044 36.944 47.791z" fill="#D32055" p-id="1902"></path></svg>